<svg xmlns="http://www.w3.org/2000/svg" xmlns:xlink="http://www.w3.org/1999/xlink" width="500" zoomAndPan="magnify" viewBox="0 0 375 374.999991" height="500" preserveAspectRatio="xMidYMid meet" version="1.0"><defs><clipPath id="1ab16d41fe"><path d="M 117.40625 73.003906 L 219.40625 73.003906 L 219.40625 175.003906 L 117.40625 175.003906 Z M 117.40625 73.003906 " clip-rule="nonzero"/></clipPath><clipPath id="552707dd66"><path d="M 79.1875 73.003906 L 155.6875 73.003906 L 155.6875 178.753906 L 79.1875 178.753906 Z M 79.1875 73.003906 " clip-rule="nonzero"/></clipPath><clipPath id="555655a365"><path d="M 172 74 L 277 74 L 277 234 L 172 234 Z M 172 74 " clip-rule="nonzero"/></clipPath><clipPath id="5104f9b945"><path d="M 117.40625 123.570312 L 251.445312 54.585938 L 318.027344 183.960938 L 183.988281 252.941406 Z M 117.40625 123.570312 " clip-rule="nonzero"/></clipPath><clipPath id="c31ab2637a"><path d="M 117.40625 123.570312 L 251.445312 54.585938 L 318.027344 183.960938 L 183.988281 252.941406 Z M 117.40625 123.570312 " clip-rule="nonzero"/></clipPath><clipPath id="163d842f3f"><path d="M 188 88 L 239 88 L 239 120 L 188 120 Z M 188 88 " clip-rule="nonzero"/></clipPath><clipPath id="f717b914e2"><path d="M 117.40625 123.570312 L 251.445312 54.585938 L 318.027344 183.960938 L 183.988281 252.941406 Z M 117.40625 123.570312 " clip-rule="nonzero"/></clipPath><clipPath id="310ac236ef"><path d="M 117.40625 123.570312 L 251.445312 54.585938 L 318.027344 183.960938 L 183.988281 252.941406 Z M 117.40625 123.570312 " clip-rule="nonzero"/></clipPath><clipPath id="79313333d3"><path d="M 179 232 L 198 232 L 198 249 L 179 249 Z M 179 232 " clip-rule="nonzero"/></clipPath><clipPath id="8dd1426b34"><path d="M 117.40625 123.570312 L 251.445312 54.585938 L 318.027344 183.960938 L 183.988281 252.941406 Z M 117.40625 123.570312 " clip-rule="nonzero"/></clipPath><clipPath id="da9b56b68d"><path d="M 117.40625 123.570312 L 251.445312 54.585938 L 318.027344 183.960938 L 183.988281 252.941406 Z M 117.40625 123.570312 " clip-rule="nonzero"/></clipPath></defs><g clip-path="url(#1ab16d41fe)"><path fill="#ff3131" d="M 168.40625 73.003906 C 140.226562 73.003906 117.40625 95.824219 117.40625 124.003906 C 117.40625 152.179688 140.226562 175.003906 168.40625 175.003906 C 196.582031 175.003906 219.40625 152.179688 219.40625 124.003906 C 219.40625 95.824219 196.582031 73.003906 168.40625 73.003906 Z M 168.40625 164.804688 C 145.863281 164.804688 127.605469 146.546875 127.605469 124.003906 C 127.605469 101.460938 145.863281 83.203125 168.40625 83.203125 C 190.945312 83.203125 209.203125 101.460938 209.203125 124.003906 C 209.203125 146.546875 190.945312 164.804688 168.40625 164.804688 Z M 168.40625 164.804688 " fill-opacity="1" fill-rule="nonzero"/></g><g clip-path="url(#552707dd66)"><path fill="#004aad" d="M 105.644531 164.535156 C 112.320312 163.941406 118.488281 163.347656 124.707031 162.84375 C 131.789062 162.25 138.875 161.65625 146.003906 161.105469 C 147.101562 161.015625 148.199219 161.015625 149.296875 161.105469 C 152.859375 161.472656 155.511719 164.671875 155.144531 168.238281 C 154.917969 170.660156 153.316406 172.765625 151.078125 173.632812 C 150.390625 173.953125 149.613281 174.136719 148.882812 174.226562 C 140.792969 174.914062 132.703125 175.554688 124.660156 176.285156 C 118.671875 176.832031 112.683594 177.566406 106.695312 178.203125 C 105.691406 178.296875 104.730469 178.433594 103.726562 178.480469 C 99.429688 178.753906 96.277344 177.015625 94.402344 173.128906 C 93.761719 171.710938 93.257812 170.296875 92.894531 168.785156 C 90.105469 158.316406 88.003906 147.664062 86.496094 136.921875 C 84.894531 125.535156 83.113281 114.195312 81.605469 102.765625 C 80.691406 95.816406 80.097656 88.824219 79.457031 81.875 C 79.363281 80.363281 79.546875 78.808594 80.050781 77.347656 C 80.871094 74.742188 83.339844 73.003906 86.082031 73.140625 C 88.871094 73.414062 91.066406 75.472656 91.523438 78.488281 C 92.300781 83.566406 92.984375 88.6875 93.761719 93.761719 C 96.597656 112.597656 99.382812 131.433594 102.355469 150.269531 C 103.085938 154.980469 104.503906 159.597656 105.644531 164.535156 Z M 105.644531 164.535156 " fill-opacity="1" fill-rule="nonzero"/></g><g clip-path="url(#555655a365)"><g clip-path="url(#5104f9b945)"><g clip-path="url(#c31ab2637a)"><path fill="#0e7d2d" d="M 240.472656 77.476562 C 227.238281 73.257812 213.140625 74.449219 200.777344 80.816406 C 188.402344 87.183594 179.242188 97.960938 174.976562 111.183594 C 170.707031 124.394531 171.855469 138.46875 178.203125 150.796875 C 183.71875 161.511719 192.59375 169.78125 203.515625 174.535156 L 199.160156 188.042969 L 196.078125 187.0625 L 182.859375 228.035156 L 199.28125 233.265625 L 212.492188 192.296875 L 209.417969 191.3125 L 213.773438 177.804688 C 225.445312 180.25 237.503906 178.636719 248.257812 173.101562 C 260.632812 166.734375 269.789062 155.949219 274.054688 142.726562 C 282.855469 115.441406 267.792969 86.171875 240.472656 77.476562 Z M 266.488281 140.3125 C 262.875 151.515625 255.113281 160.644531 244.625 166.046875 C 234.144531 171.4375 222.199219 172.441406 210.988281 168.875 C 199.78125 165.308594 190.652344 157.59375 185.277344 147.152344 C 179.902344 136.707031 178.929688 124.785156 182.542969 113.59375 C 186.144531 102.394531 193.90625 93.261719 204.394531 87.863281 C 214.875 82.46875 226.820312 81.46875 238.035156 85.035156 C 261.175781 92.410156 273.941406 117.210938 266.488281 140.3125 Z M 266.488281 140.3125 " fill-opacity="1" fill-rule="nonzero"/></g></g></g><g clip-path="url(#163d842f3f)"><g clip-path="url(#f717b914e2)"><g clip-path="url(#310ac236ef)"><path fill="#ffde59" d="M 207.101562 93.121094 C 198.027344 97.792969 191.320312 105.703125 188.191406 115.390625 C 187.71875 116.847656 188.527344 118.417969 189.988281 118.882812 C 191.449219 119.347656 193.023438 118.539062 193.492188 117.078125 C 196.164062 108.800781 201.902344 102.054688 209.644531 98.066406 C 217.398438 94.078125 226.21875 93.332031 234.511719 95.96875 C 235.238281 96.207031 235.996094 96.117188 236.636719 95.785156 C 237.265625 95.464844 237.78125 94.898438 238.019531 94.160156 C 238.492188 92.703125 237.683594 91.132812 236.222656 90.667969 C 226.515625 87.589844 216.171875 88.453125 207.101562 93.121094 Z M 207.101562 93.121094 " fill-opacity="1" fill-rule="nonzero"/></g></g></g><g clip-path="url(#79313333d3)"><g clip-path="url(#8dd1426b34)"><g clip-path="url(#da9b56b68d)"><path fill="#0e7d2d" d="M 179.761719 237.652344 C 178.410156 241.828125 180.710938 246.300781 184.894531 247.625 L 186.171875 248.035156 C 190.355469 249.363281 194.835938 247.054688 196.1875 242.882812 L 198 237.25 L 181.578125 232.023438 Z M 179.761719 237.652344 " fill-opacity="1" fill-rule="nonzero"/></g></g></g></svg>